<?xml version="1.0" encoding="UTF-8"?>
<svg id="Layer_2" data-name="Layer 2" xmlns="http://www.w3.org/2000/svg" viewBox="0 0 1199.77 337.8">
  <defs>
    <style>
      .cls-1 {
        fill: #e36002;
      }
    </style>
  </defs>
  <g id="Layer_1-2" data-name="Layer 1">
    <g>
      <path class="cls-1" d="M529.98,143.32l4.04.03c-.73-1.25-1.5-2.45-2.32-3.62l-2.32,1.67c-.23.17-.63.45-.39,1.19.23.74.72.74,1.01.74Z"/>
      <path class="cls-1" d="M529.88,159.32c-7.53-.05-13.87-4.72-16.15-11.9s.2-14.65,6.32-19.04l.31-.22c-10.38-7.6-23.99-11.42-40.87-11.42-19.62,0-34.93,5.5-45.92,16.49s-16.49,26.35-16.49,46.09c0,14.13,2.77,25.89,8.33,35.29,5.55,9.4,12.79,16.27,21.72,20.61,8.93,4.34,20.21,6.51,33.84,6.51,8.5,0,16.11-1.01,22.84-3.04,2.1-8.32,4.68-17.09,7.74-26.33,7.72-23.26,16.46-43.14,21.03-53.03l-2.71-.02ZM498.37,205.95c-4.4,5.22-10.61,7.83-18.63,7.83s-13.97-2.67-18.51-8c-4.53-5.33-6.8-14.1-6.8-26.3s2.28-21.13,6.84-26.46c4.56-5.33,10.61-8,18.14-8s14.08,2.63,18.67,7.87c4.59,5.25,6.88,13.56,6.88,24.94,0,13.52-2.2,22.89-6.6,28.11Z"/>
    </g>
    <path d="M701.07,118.97h34.87l45.51,66.87v-66.87h35.2v120.86h-35.2l-45.26-66.36v66.36h-35.12v-120.86Z"/>
    <path d="M660.02,152.16l-43.11-.28-13.59,40.91c-2.77,8.33-14.58,8.26-17.24-.11l-13.05-41.08-43.11-.28c-8.78-.06-12.36-11.32-5.22-16.43l35.04-25.11-13.05-41.08c-2.66-8.37,6.94-15.25,14.01-10.04l34.71,25.56,35.04-25.11c7.14-5.11,16.65,1.89,13.88,10.22l-13.59,40.91,34.71,25.56c7.07,5.21,3.35,16.42-5.43,16.36Z"/>
    <path class="cls-1" d="M0,118.8h37.35v42.29h40.81v-42.29h37.51v120.86h-37.51v-48.89h-40.81v48.89H0v-120.86Z"/>
    <path class="cls-1" d="M135.78,179.32c0-19.73,5.5-35.09,16.49-46.09s26.3-16.49,45.92-16.49,35.62,5.4,46.5,16.2c10.88,10.8,16.32,25.93,16.32,45.39,0,14.13-2.38,25.71-7.13,34.75-4.75,9.04-11.62,16.08-20.61,21.11s-20.19,7.54-33.6,7.54-24.91-2.17-33.84-6.51c-8.93-4.34-16.17-11.21-21.72-20.61-5.55-9.4-8.33-21.16-8.33-35.29ZM173.13,179.48c0,12.2,2.27,20.97,6.8,26.3,4.53,5.33,10.7,8,18.51,8s14.23-2.61,18.63-7.83c4.4-5.22,6.6-14.59,6.6-28.11,0-11.38-2.3-19.69-6.88-24.94-4.59-5.25-10.81-7.87-18.67-7.87s-13.58,2.67-18.14,8c-4.56,5.33-6.84,14.15-6.84,26.46Z"/>
    <path class="cls-1" d="M281.38,118.8h34.87l45.51,66.87v-66.87h35.2v120.86h-35.2l-45.26-66.36v66.36h-35.12v-120.86Z"/>
    <path d="M841.38,118.8h100.09v25.8h-62.66v19.21h58.12v24.65h-58.12v23.83h64.47v27.37h-101.9v-120.86Z"/>
    <path d="M955.16,118.8h41.14l21.39,37.18,20.82-37.18h40.73l-37.62,58.53,41.16,62.33h-41.96l-23.87-38.83-23.87,38.83h-41.72l41.69-62.99-37.9-57.88Z"/>
    <path d="M1086.24,118.8h113.52v29.84h-38.09v91.02h-37.35v-91.02h-38.09v-29.84Z"/>
    <path d="M693.07,247.67v-8.22c-44.39,43.23-112.7,87.82-140.08,60.75-29.59-29.24,26.73-110.26,26.73-110.26l-10.23-33.5-26.57-.22s-74.15,149.55-15.15,176.81c48.43,22.38,135.24-38.9,181.48-85.38h-16.18Z"/>
    <path d="M788.91,19.89c14.48,20.68,7.69,55.08-7.99,90.91h14.03c13.78-37.24,18.52-73.56,2.8-97.73-24.61-37.86-112.82,18.57-112.82,18.57,0,0,81.43-43.94,103.97-11.75Z"/>
  </g>
</svg>